<svg xmlns="http://www.w3.org/2000/svg" viewBox="0 0 1000 1000"><path fill="currentColor" d="M499.8 631.2c-51.3 0-95.1-25-117.9-60.4h-85.6l39.1 327.5h320.2l38.6-327.5h-76.6c-22.7 35.3-67.1 60.4-117.8 60.4zM340.2 937.5H651l2.6-23.4h-316l2.6 23.4zM744 134.1h-16.7c-8.5-.4-34.1-4.7-45.4-40.8h-.2c-3.1-17.6-18.2-30.8-36.1-30.8h-298c-17.9 0-32.8 13.2-36.1 30.8-11.6 36.1-36.9 40.3-45.6 40.8h-10.4c-20.5 0-36.9 17.1-36.9 37.8v15.5c0 20.8 16.4 37.9 36.9 37.9l28.1 236.3h98.1c22.9-35.8 66.8-60.2 118-60.2 51 0 95 24.4 118 60.2h89.6l28-236.2h8.7c20.2 0 36.8-17.1 36.8-37.9V172c0-20.9-16.5-37.9-36.8-37.9zm-207 3h-74.6c-8.9 0-15.9-7.4-15.9-16.4 0-9.2 7-16.4 15.9-16.4H537c8.9 0 15.9 7.3 15.9 16.4 0 9-7.1 16.4-15.9 16.4zm-37.2 468.7c58.3 0 105.7-40.2 105.7-89.7 0-49.4-47.4-89.8-105.7-89.8-58.4 0-106.1 40.3-106.1 89.8s47.7 89.7 106.1 89.7z"/></svg>