<svg xmlns="http://www.w3.org/2000/svg" viewBox="0 0 1000 1000"><path fill="currentColor" d="M321.3 172.7c23.4-1.8 46.7-6.1 66.4-10 6.5-1.3 12.9-2.5 19.3-3.9 10-2 20-4 29.8-6l1.5-.3c2.5-.5 5.5-1.1 8.6-1.8 3.2-.7 6.6-1.4 9.6-2-6 2.5-13.1 5.3-19.5 7.7-13 5-26.3 10.2-35.9 14.6l-1.8.8c-18.5 8.4-46.5 21.1-51.7 43.9-2.1 8.8 0 17.9 5.8 25.1 6.1 7.6 15.4 12 25 11.7 3.3-.1 6.9-.3 10.8-1 6.2-1.2 12.3-3 17.9-5.3 29.4-12.1 31.2-4.2 31.4-3.3 1.1 5.2-7.2 16.2-10.8 20.8-.8 1.1-1.4 1.8-1.8 2.5-.9 1.3-2 2.7-3.2 4.3-7.2 9.5-17.1 22.6-13.3 34 .4 1.4 1.8 2.2 3.2 1.9h.1c1.4-.4 2.4-1.7 2.2-3.2-.6-4.9 3.2-10.1 6.9-14.4 3.5-4.2 7.4-8.2 11.1-12.1 1.6-1.7 3.2-3.2 4.6-4.9l.1-.1c6.8-7.3 18.3-19.4 17.9-31.2-.2-4.7-2.2-8.9-6-12.4-10.7-9.8-26.1-7.7-39.6-5.1l-1.1.3-7.3 1.6-7.5 1.6c-4.4.9-7.9 1.4-11.1 1.6-6.6.4-9.4-2.6-8.4-5.4 3-8.4 23.9-19.4 63-32.6 2.1-.7 3.8-1.3 4.9-1.7 2.4-.9 4.8-1.8 7.2-2.5 13.8-4.9 28.1-10 41.3-17 23.5-12.3 25.9-25.9 23.5-35.4v-.2l-.1-.3c0-.2-.1-.4-.2-.5-3.1-9.7-11.6-16.5-23.5-18.6-17.1-3-35.6.6-52.1 3.8l-4.3.8c-14 2.7-28.3 5.8-42 8.8-12 2.6-24.4 5.4-36.7 7.8s-23.1 4.2-33.2 5.6c-7.7 1.1-17 2.2-26.3 2.3-7.1.1-15.9.2-22.3-3.3-5.8-3.2-2.5-13.4.1-18.3 7.7-15 24.6-23.8 40.1-30.5C328 84.9 344 80 364 75.6c12.9-2.8 25.5-5 37.5-6.4h.3c1.6-.3 2.5-1.8 2.3-3.3-.3-1.4-1.4-2.3-2.8-2.3-24.2-2.1-49.4-.7-72.5 3.9-7.2 1.4-14.3 3.2-21.1 5.2-26.2 7.7-58.5 24.1-63.8 57.6-1.8 11.4.6 20.7 7.2 27.8 14.5 15.5 46.1 16.6 70.2 14.6zm530.7 266c-29.6-33.7-77.3-52.8-138.4-55.7-7.4-34.2-34.2-59.7-66.4-59.7H183.4c-37.8 0-68.4 35-68.4 78.2v405c0 41 27.6 74.5 62.6 78V922c0 8.7 7 15.7 15.7 15.7h444.2c8.7 0 15.7-7 15.7-15.7v-37.5c35.1-3.4 62.6-36.9 62.6-78V750c48-12.8 88.8-40.3 120.2-81.4 31.7-41.6 42.2-82.4 43.3-87l.3-1c12.5-58.9 3.3-106.7-27.6-141.9zm-64.6 124c-.8 2.9-8.5 29.5-28.2 55.3-12.6 16.5-27.1 29.1-43.6 37.8V470.7c22.4 1.8 49.6 7.4 63.6 23.4 12.2 13.9 15 37 8.2 68.6z"/></svg>