<svg xmlns="http://www.w3.org/2000/svg" viewBox="0 0 1000 1000"><path fill="currentColor" d="M772.9 299l-6.6-2.8H653.8l12.5-86-551.7-60.6 71 181.3c-75.2 66.6-123 164.3-123 273.7 0 95.1 36.1 181.3 94.9 246h527.7c58.8-64.7 95-150.9 95-246 0-86-29.6-165.1-79-227.4h50.3c31.4 17 171.9 110.4 85 376.1-7 20.9 2.9 44.2 21.9 51.7 4.1 1.7 8.3 2.4 12.5 2.4 14.9 0 29.1-10.1 34.3-26.7 96.2-293.9-44.5-443.5-132.3-481.7zm-55.4 186.1c-1.7-1.1-2.9-2.3-4.8-3.4-4.3-2.6-9.6-4.4-17-5.8-89.9-16.6-191.8-10.4-268.1 16.4-91 32.1-198.4 35.9-303.5 10.7-1.4-.3-2.4-.5-3.5-.7 16.1-65.9 52.5-123.4 102.2-165.6h396.7c14.7 12.3 28.2 25.5 40.2 40.3 25.8 31.4 45.6 68 57.8 108.1z"/></svg>