<svg xmlns="http://www.w3.org/2000/svg" viewBox="0 0 1000 1000"><path fill="currentColor" d="M778.2 356.6c-54.5-42.3-75-42.3-129.4.3-16.2 12.7-32.9 25.9-45.6 41.7-34.7 43.5-68.4 88-100.4 133.4-13.3 18.8-28.4 26.4-50.2 20.7-21-5.5-35.5-18.1-36.5-40.6-1.3-31.8-5.9-64.4-1-95.4 8.3-51.9 23.1-102.8 35.4-154.6-6.1 0-16.9.1-27.7 0-48.2-.6-79.7 18.8-97.3 65-28.8 75.6-37.4 152.1-22.5 231 4.9 26.1 19.7 46.2 48.7 52.9 86 19.8 171.8 40.4 258 59 12.7 2.8 32.6 1.8 40.5-5.9 69.2-67.1 125.3-142.9 150.4-236.5 7.1-26.7 1.2-52.7-22.4-71zm-349.8 156c2.2 11.7 17.8 25.4 30.2 29.5 8.4 2.8 26.8-6.4 32.9-15.3 59.1-86.3 116.8-173.5 223.6-221.1-11.2-9.9-17.8-18.1-26.4-23.1-60.3-35-125.7-40.6-192.9-26.9-12.4 2.5-26.9 14.4-32.7 25.8-37.5 73.1-49.5 150.8-34.7 231.1zM815.7 413C793.4 516 729.6 595.6 660 674.6c24.9 10.2 48.1 18.5 70.2 29.1 25 12 47.8 8.6 65.3-10.4 26.5-28.6 54.2-57.3 74.6-89.9 44.6-71.2 22.6-144-54.4-190.4zM332 286.4c-31.4 8.3-58.8 11.1-81.6 22.8-19.6 10-41.8 27.2-48.7 46.1-22.6 61.7-27.1 126.6-12.6 191.3 5.3 23.6 18.5 43.8 46.7 46 21.5 1.6 43.3.3 65.9.3-32-104.5-17.4-203.6 30.3-306.5zm-154.5 87.2c-27.1 21.9-51.3 45.8-72.9 71.8-26.3 31.4-43.4 67.2-42 109 1.1 30.9 17.8 43.6 49 37.7 24.3-4.6 48.6-9.7 76.4-15.3-26.6-66.4-18-133.1-10.5-203.2zm731.4 192.9c-35.5 48.4-72 98.1-109.7 149.5 18.8 9.3 40.3 21.4 63.1 30.7 25.9 10.6 46.6 1.4 60.8-21.4 25.5-41.1 14.9-128.3-14.2-158.8z"/></svg>