<svg xmlns="http://www.w3.org/2000/svg" viewBox="0 0 1000 1000"><path fill="currentColor" d="M724.4 598.3c-36.4 33.6-73.8 23.6-111.2-.7-32.7 29.8-67.2 25.3-102.9 6.9-5.4-2.8-14.4-4.6-19-2-37.4 20.7-73.6 25.4-107.5-5-38.7 26.7-75.9 32.4-107.2 4.6-22.9 8.5-41.4 20.5-59.9 20.7-18.1.1-36.4-11.8-54-18.2 0 .4 0 2.2.5 3.8l3.6 10.2c33.4 94.7 66.3 189.6 101.4 283.7 4.5 12 20.7 20 32.3 28.8 4.8 3.6 11.7 4.5 17.8 6.5h361.4c36.1-7.4 51.6-31.7 62.2-65.5 20.1-64.8 44.9-128.2 67.6-192.3 6.7-18.8 13.1-37.7 20.1-58 2.6-7.6 5.3-15.4 8.1-23.5-48.9 34.5-63.2 34.2-113.3 0zM374 866.3c0 1.3-1.9 2.4-4.3 2.4h-18c-2.4 0-4.3-1.1-4.3-2.4V726.6c0-1.3 1.9-2.4 4.3-2.4h18c2.4 0 4.3 1.1 4.3 2.4v139.7zm95.8 0c0 1.3-1.9 2.4-4.3 2.4h-18c-2.4 0-4.3-1.1-4.3-2.4V726.6c0-1.3 1.9-2.4 4.3-2.4h18c2.4 0 4.3 1.1 4.3 2.4v139.7zm91.4 0c0 1.3-1.9 2.4-4.3 2.4h-18c-2.4 0-4.3-1.1-4.3-2.4V726.6c0-1.3 1.9-2.4 4.3-2.4h18c2.4 0 4.3 1.1 4.3 2.4v139.7zm91.4 0c0 1.3-1.9 2.4-4.3 2.4h-18c-2.4 0-4.3-1.1-4.3-2.4V726.6c0-1.3 1.9-2.4 4.3-2.4h18c2.4 0 4.3 1.1 4.3 2.4v139.7zM727.8 304c-6.7 0-13.4.5-19.9 1.4-4.8.6-9.5-2.5-10.7-7.2-17.8-66.4-68.1-119.5-132.9-141-13 22-36.8 36.6-64.2 36.6s-51.3-14.7-64.2-36.6c-64.8 21.5-115.2 74.6-132.9 141-1.3 4.6-6 7.8-10.7 7.1-6.6-.9-13.1-1.3-19.9-1.3-90 0-162.7 72.8-162.7 162.6 0 46.4 19.4 88.1 50.6 117.7 3.5 3.3 10.2 6.6 15.1 7.1 10.7 1.3 29.2 3 41.3 2.9 16.3-.2 32.6-9.5 51.8-17.5 4.5-1.8 11-.6 14.9 2.3 27.8 20 59.9 15.5 93.1-5.3 4.1-2.5 10.2-2.1 14 .8 32 24.2 66 18.7 100.8-.5 4.6-2.5 13.6-.8 19 2 33.3 17.2 65.5 22.1 96.2-1.3 3.9-2.9 10-3.4 14.1-1 32.7 19.5 65.3 26.7 97.1 1.8 3.8-3 9.8-3.4 14-1 37.7 22.6 72.6 19.6 89 18.7 4.8-.3 11.7-2.3 15.3-5.5 33.3-29.8 54.3-73 54.3-121.2.1-89.7-72.6-162.6-162.5-162.6zM500.1 175.7c20.7 0 38.9-11.1 48.7-27.7 5.1-8.4 8-18.4 8-28.9-.1-31.2-25.4-56.6-56.6-56.6s-56.6 25.4-56.6 56.6c0 10.5 2.9 20.5 8 28.9 9.6 16.6 27.7 27.7 48.5 27.7z"/></svg>