<svg xmlns="http://www.w3.org/2000/svg" viewBox="0 0 1000 1000"><path fill="currentColor" d="M500 62.5C258.3 62.5 62.5 258.3 62.5 500S258.3 937.5 500 937.5c241.2 0 437.5-195.8 437.5-437.5S741.2 62.5 500 62.5zm19.7 163.2c6.2-1.1 12.9 7.8 14.6 19.6 1.7 11.8-1.7 22.4-7.8 23.6-6.2 1.1-12.9-7.8-15.1-19.6-1.8-12.4 1.5-23 8.3-23.6zm-70.2 72.4c8.4-10.7 19.1-15.7 24.1-11.8 5 4.5 1.7 16.3-6.7 26.9l-7.3 8.4c-9 10.7-19.6 16.3-24.7 11.8-4.5-3.9-1.7-16.3 7.3-26.9l7.3-8.4zm-44.3-96c5.6-3.4 16.3 3.4 23 15.1l.5 1.1c7.3 11.8 8.4 23.6 3.4 26.9-5.6 3.4-15.7-3.4-23-15.1l-1.1-1.7c-6.7-11.1-8.4-23.4-2.8-26.3zM201 286.3l-6.2 9.5c-7.3 11.2-18 17.4-23 14-5.6-3.4-3.9-15.7 3.9-26.9l6.2-9.5c7.3-11.8 18-18 23-14 5.7 3.3 4 15.7-3.9 26.9zm37.6 150.3c-13.5-.5-23.6-5.6-23.6-12.3.5-6.2 11.2-11.2 24.1-10.7 12.9.5 23.6 5.6 23 12.3.1 6.2-10.6 11.3-23.5 10.7zm33.7-63.9c-5.6 3.4-15.7-3.4-23-15.1l-.5-1.7c-7.3-11.8-8.5-24.1-2.8-26.9 5-3.4 15.1 3.4 22.4 15.1l1.1 1.1c6.7 11.8 8.4 24.1 2.8 27.5zm70.7-88.1c-4.5 4.5-16.2 1.1-26.3-7.9l-22.4-19.6c-10.1-9-15.1-20.2-10.7-24.7 3.9-5 15.7-1.7 25.8 7.3l22.4 19.6c10.1 9 15.1 20.2 11.2 25.3zm15.1 39.3c5-4.5 15.7 1.1 24.7 11.8l5.6 7.3c8.4 10.7 11.8 22.4 6.7 26.3-5 3.9-16.3-1.1-24.7-11.8l-6.1-7.3c-8.4-10.6-11.2-22.4-6.2-26.3zm80.1 407.9c0 15.5-11.9 27.9-26.7 27.9-14.3 0-26.3-12.4-26.3-27.9v-86.1c0-1.8.4-3.2.8-4.6 15.1 14.8 32.7 26.8 52.2 35v55.7zm68.9-32.9c0 15.5-11.9 27.9-26.3 27.9-14.3 0-26.3-12.4-26.3-27.9v-17c14.3 4.2 29.5 6.7 45.4 6.7 2 0 4.8-.4 7.2-.4v10.7zm61.8 71c0 15.5-11.6 28.3-25.9 28.3-14.8 0-26.3-12.7-26.3-28.3v-82.3c18-1.8 34.7-6.7 50.6-14.1 1.2 3.2 1.6 6.7 1.6 10.2v86.2zm63.4-71c0 15.5-11.6 27.9-25.9 27.9-14.8 0-26.3-12.4-26.3-27.9v-32.1c20.3-11.7 38.3-28.3 52.2-47.7v79.8zM500 638.5c-76.3 0-138.5-61.7-138.5-138.5 0-76.3 62.3-138.5 138.5-138.5S638.5 423.7 638.5 500c0 76.8-62.2 138.5-138.5 138.5z"/></svg>