<svg xmlns="http://www.w3.org/2000/svg" viewBox="0 0 1000 1000"><path fill="currentColor" d="M228.1 306.4h54.7c2.2 0 4 .8 6.1 1.1L278 204l-44.6 7.3c-6.5 1-12.2 4.4-15.9 9.2-3.7 4.8-5.1 10.8-3.9 16.4l14.5 69.5zm107.2 23.2c7.9 8.7 14 18.6 15.6 30.4 4.6 34 23.6 63.7 51.1 84.8V125.3l-2.2-.4c-.8 0-1.5 0-2.3.1l-58.4 4.8c-6.5.5-12.6 3.4-16.8 7.9-4.2 4.6-6.2 10.3-5.6 16.1l18.6 175.8zm436.6-23.2l14.6-69.6c2.5-11.9-6.5-23.5-19.9-25.6l-44.6-7.3-11 103.6c2.1-.2 4-1.1 6.2-1.1h54.7zm-122.8 53.7c1.6-11.7 7.6-21.8 15.5-30.4l18.6-175.9c1.3-12.1-8.8-22.8-22.3-23.9l-58.5-4.9-2.3-.1-2.2.3v319.6c27.6-21 46.6-50.7 51.2-84.7zm-94.9 108.1V84.5c0-12.2-11.1-22-24.8-22h-58.8c-13.7 0-24.8 9.9-24.8 22v383.8c16.9 5.8 35.2 8.9 54.2 8.9 18.9 0 37.3-3.2 54.2-9zM242.6 890.9h514.9l-3.3 26.9c-1.3 11.3-12 19.7-24.6 19.7h-459c-12.7 0-23.3-8.3-24.6-19.7l-3.4-26.9zM821 369.7l-61.3 501.9H240.2L179 369.7c-.7-6.3 1.7-12.7 6.3-17.3 4.6-4.6 11.3-7 18.3-7h79.2c12.7 0 22.9 8 24.6 19.3 11.6 85.2 93.2 151.1 192.4 151.1 99.5 0 181-65.9 192.7-151.1 1.3-11 12-19.3 24.6-19.3h79.2c7 0 13.6 2.4 18.3 7 4.7 4.6 7 11 6.4 17.3z"/></svg>