<svg xmlns="http://www.w3.org/2000/svg" viewBox="0 0 1000 1000"><path fill="currentColor" d="M915.2 610.2L155.8 244.6c-25.2-12.1-61.5 11.2-81.1 51.9-19.6 40.8-15.1 83.8 10.1 95.9L844.2 758c25.2 12.1 61.5-11.2 81.1-52 19.6-40.8 15.1-83.7-10.1-95.8zm-41.6 95.3c-2.4 4.9-6.2 8.6-10.5 10.5-4.3 1.9-9 2.1-13.2.1-25.8-12.4-33.1-32.2-39-48-5.1-13.7-8.7-23.6-23.8-30.8s-25.1-4-38.9.6c-16 5.3-36 11.9-61.8-.5-25.8-12.4-33.1-32.2-39-48-5.1-13.7-8.7-23.6-23.8-30.8s-25.1-4-38.9.6c-16 5.3-36 11.9-61.8-.5-25.8-12.4-33.1-32.2-39-48-5.1-13.7-8.7-23.5-23.8-30.8-15.1-7.3-25.1-4-38.9.6-16 5.3-36 11.9-61.8-.5-25.8-12.4-33.1-32.2-39-48-5.1-13.7-8.7-23.6-23.8-30.8-9.9-4.8-17.7-5-25.7-3.3-4.2.9-8.5 2.3-13.2 3.9-16 5.3-36 11.9-61.8-.5-25.8-12.4-33.1-32.2-39-48-5-13.6-8.7-23.5-23.8-30.8-8.3-4-11.2-15.3-6.5-25.2 4.8-9.9 15.4-14.7 23.7-10.7 25.8 12.4 33.1 32.2 39 48 5.1 13.7 8.7 23.6 23.8 30.8 15.1 7.3 25.1 4 38.9-.6 16-5.3 36-11.9 61.8.5 4.8 2.3 8.9 4.9 12.6 7.6 15.9 12 21.6 27.5 26.4 40.4 5.1 13.7 8.7 23.6 23.8 30.8s25.1 4 38.9-.6c16-5.3 36-11.9 61.8.5 25.8 12.4 33.1 32.2 39 48 5.1 13.7 8.7 23.6 23.8 30.8 15.1 7.3 25.1 4 38.9-.6 16-5.3 36-11.9 61.8.5 25.8 12.4 33.1 32.2 39 48 5.1 13.7 8.7 23.6 23.8 30.8 15.1 7.3 25.1 4 38.9-.6 16-5.3 36-11.9 61.8.5 25.8 12.4 33.1 32.2 39 48 5.1 13.7 8.7 23.6 23.8 30.8 8.4 4.1 11.3 15.4 6.5 25.3zM191.1 215.6l724.7 348.9c4.2 2 9.5-.4 11.5-5.5 18.6-48.6 2.7-101.4-38.1-121L306.5 157.4c-40.8-19.6-92 .8-118.2 45.7-2.9 4.8-1.3 10.5 2.8 12.5zM810.3 784L85.6 435.1c-4.1-2-9.5.4-11.5 5.5-6.3 16.3-8.6 33.1-7.4 49 2.3 31.3 18.5 59 45.6 72L695 842.2c40.8 19.6 91.9-.8 118.2-45.7 2.8-4.8 1.3-10.5-2.9-12.5z"/></svg>