<svg xmlns="http://www.w3.org/2000/svg" viewBox="0 0 1000 1000"><path fill="#ccc" d="M935.2 405.6c-16.7 17.3-32.9 34.6-49.8 51.2-45.4 44.7-91.3 89-137 133.4-7.2 7-14.9 13.7-21.5 21.4-2.6 3.1-4.3 8.6-3.6 12.5 16.6 98.7 33.5 197.3 50.4 296 .1.4 0 .9-.1 1.6-.2.9-4.4-.6-9.5-3.3-17.7-9.2-35.1-18.3-52.5-27.5C642.7 854.7 573.7 818.5 505 782c-6-3.2-10.1-1.7-15.3 1-86.1 45.4-172.2 90.7-258.4 136-1.5.8-3 1.5-4.6 2.2-2.6 1.2-3.9-2.5-2.9-8.2 3.9-23.3 7.6-46 11.5-68.6 12.7-74 25.7-147.9 38.1-221.9.6-3.5-1.9-8.7-4.6-11.4-44.7-44-90-87.3-134.3-131.7-24.2-24.3-47.2-49.8-69.8-74.1-3.9-4.2-2.5-8.3 3.2-9.2 11.9-1.8 25.7-3.9 39.6-5.9 60.5-8.8 121.1-17.6 181.6-26.5 20.3-3 40.5-6.5 60.9-8.6 7.7-.8 11.4-4 14.6-10.6 42.2-86.1 84.7-172.1 127.1-258.1.9-1.9 1.9-3.7 3-5.7 1.7-3.1 4.3-3.7 5.9-1.1 1 1.6 1.9 3.1 2.7 4.7 42.9 86.9 85.9 173.8 128.6 260.9 3.1 6.3 6.6 9 13.8 10C734.5 367.9 823.2 381 912 394c6.7 1 13.4 1.9 20.1 2.8 5.7.6 7.1 4.6 3.1 8.8z"/></svg>